<svg id="Capa_1" data-name="Capa 1" xmlns="http://www.w3.org/2000/svg" viewBox="0 0 177.83 152.15"><defs><style>.cls-1,.cls-10,.cls-12,.cls-13,.cls-2,.cls-3,.cls-4,.cls-5,.cls-6,.cls-7,.cls-8,.cls-9{fill:none;}.cls-1,.cls-10,.cls-2,.cls-3,.cls-4{stroke:#177b93;}.cls-1,.cls-12,.cls-2,.cls-4,.cls-5,.cls-9{stroke-linecap:round;}.cls-1,.cls-10,.cls-11,.cls-12,.cls-13,.cls-2,.cls-3,.cls-4,.cls-5,.cls-6,.cls-7,.cls-8,.cls-9{stroke-miterlimit:10;}.cls-1{stroke-width:2px;}.cls-10,.cls-12,.cls-2,.cls-9{stroke-width:3px;}.cls-3,.cls-4{stroke-width:4px;}.cls-11,.cls-12,.cls-5,.cls-8{stroke:#20997b;}.cls-13,.cls-5{stroke-width:7px;}.cls-6,.cls-9{stroke:#7fc98f;}.cls-6,.cls-8{stroke-width:5px;}.cls-7{stroke:#fff;}.cls-11{fill:#20997b;stroke-width:2.9px;}.cls-13{stroke:#000;}</style></defs><title>Logo Colored Original Colors</title><path class="cls-1" d="M301.23,291.6c.28,2.24,1,5.1,3,6s4.13-1,6,0c1.1.56,2.28,2.18,2.21,7.12" transform="translate(-161.59 -179.45)"/><path class="cls-2" d="M334.31,267.4a12.5,12.5,0,0,0-12.52,4.48" transform="translate(-161.59 -179.45)"/><path class="cls-3" d="M253,308v18a14.46,14.46,0,0,1,0,2c-1,1.55-46-17.95-74.32-54.26a70.71,70.71,0,0,1-9.91-17.75A75.28,75.28,0,0,1,164,221a43.26,43.26,0,0,1,1.8-9.41c3.61-11.17,11.44-17.51,13.87-19.73,2.61-2.38,12.82-9.54,29.14-10.3C235.3,180.28,253,199.7,253,205.62h0s0,11.75,0,40.48" transform="translate(-161.59 -179.45)"/><path class="cls-4" d="M254.35,245.66l-.12-39.48a30.32,30.32,0,0,1,58.5,1.6c1.14.17,11.74,1.95,17,11.83,5.94,11.14-.54,22-.87,22.54.81.75,10.27,9.87,8,23.27-2.33,13.89-15.08,19.52-15.95,19.88A24.35,24.35,0,0,1,312.46,305c-4.73,4-13.1,4.64-18.65.66,0,.09,0,.21,0,.35-.9,8.63-3.52,13.73-10.57,19.26-7.76,6.09-22.17,4.87-28.6,1.57l0-16.65" transform="translate(-161.59 -179.45)"/><path class="cls-5" d="M311.37,272.58" transform="translate(-161.59 -179.45)"/><path class="cls-4" d="M310.46,202.6a87,87,0,0,1-1.16,14.71c-1.16,6.95-3.48,13.9-9.29,15.29-3.49,0-5.57-1.3-8.13-4.17-3.17-3.56-3.74-8.72-4.65-11.12" transform="translate(-161.59 -179.45)"/><path class="cls-6" d="M299.5,261.5a66.46,66.46,0,0,0,12.7-3l.71-.24c2.13-.72,8.09-2.69,15-4.57,2.82-.78,4.89-1.28,6.59-.19,2.7,1.73,2.49,6.19,2.42,7.28h0a24,24,0,0,1-.4,4.72,26.31,26.31,0,0,1-5.06,11,26.64,26.64,0,0,1-5.88,6,20.64,20.64,0,0,1-1.83,1.08,13.54,13.54,0,0,1-4,1.37,11.92,11.92,0,0,1-1.3.14H318c-.54,0-6.7.39-22,1.41a42.13,42.13,0,0,0,4.05-16A41.15,41.15,0,0,0,299.5,261.5Z" transform="translate(-161.59 -179.45)"/><path class="cls-6" d="M202.5,260.5c-4.7-1.17-8.53-2.17-11.15-2.86,0,0-4.95-1.33-13.8-3.29-6.47-1.44-8.16-1.76-9-.81-1.24,1.38.25,4.38,3,9.68.83,1.63,1.62,3,2.44,4.38a83.45,83.45,0,0,0,6.56,9.19c4.64,5.69,6.27,6.42,7,6.71a34.22,34.22,0,0,0,5,1,64.75,64.75,0,0,0,7,1,55.62,55.62,0,0,0,8,0,30.36,30.36,0,0,1-2-4,30.86,30.86,0,0,1-1.71-5.68,32.44,32.44,0,0,1-1.29-5.32A32.82,32.82,0,0,1,202.5,260.5Z" transform="translate(-161.59 -179.45)"/><path class="cls-7" d="M163.54,248.31" transform="translate(-161.59 -179.45)"/><path class="cls-8" d="M251.47,246.6c-5.7,1.23-10.21,2.52-13.12,3.4-9.9,3-14,5.32-23.64,8.16-5.33,1.57-9.69,2.53-12.3,3-.3,4.64-.45,17,7.67,27.89,4.87,6.51,10.64,9.71,14.77,12a60.07,60.07,0,0,0,26.75,7c5.23.14,15,.3,25.79-5,3.94-1.93,10.36-5.08,15.52-12,8.79-11.8,7.45-25.87,6.92-29.89-3.27-.66-7.47-1.63-12.29-3-9.44-2.78-13.59-5-23.65-8.16C260.59,249,256.39,247.77,251.47,246.6Z" transform="translate(-161.59 -179.45)"/><path class="cls-9" d="M282.23,275.6a114.5,114.5,0,0,1-60,0" transform="translate(-161.59 -179.45)"/><path class="cls-9" d="M276.75,289.39a80.13,80.13,0,0,1-50,0" transform="translate(-161.59 -179.45)"/><path class="cls-3" d="M252.83,206.54c7.83,2.39,10.52,5.69,11.46,8.38,1.44,4.13-.77,8.18,1.94,11.68a9,9,0,0,0,5,3" transform="translate(-161.59 -179.45)"/><path class="cls-2" d="M256.44,326.09a11.76,11.76,0,0,1,7.13-7c4.37-1.48,8.81-.14,10.66.53" transform="translate(-161.59 -179.45)"/><path class="cls-10" d="M331.12,234.87c-4.62,8.36-8.55,10.29-11.39,10.38-3.12.09-6-2-11-1.15a16,16,0,0,0-4.5,1.5" transform="translate(-161.59 -179.45)"/><path class="cls-2" d="M276.37,225.09a15.55,15.55,0,0,0-8.92,9.86" transform="translate(-161.59 -179.45)"/><path class="cls-2" d="M302.19,240.81a13.43,13.43,0,0,1,2.54,6.29,13,13,0,0,1-.15,4.12" transform="translate(-161.59 -179.45)"/><ellipse class="cls-11" cx="173" cy="218.99" rx="3.34" ry="1.84" transform="translate(-234.29 171.88) rotate(-80)"/><path class="cls-12" d="M176.43,212.62a43.58,43.58,0,0,1,12.47-14.35,40.81,40.81,0,0,1,21.66-7.77" transform="translate(-161.59 -179.45)"/><path class="cls-13" d="M206.73,325.1" transform="translate(-161.59 -179.45)"/></svg>