<svg id="Capa_1" data-name="Capa 1" xmlns="http://www.w3.org/2000/svg" viewBox="0 0 183.07 152.95"><defs><style>.cls-1,.cls-2,.cls-3,.cls-6{fill:#fda5b8;}.cls-1,.cls-10,.cls-11,.cls-12,.cls-13,.cls-14,.cls-2,.cls-3,.cls-4,.cls-5,.cls-6,.cls-7,.cls-9{stroke:#000;}.cls-1,.cls-10,.cls-11,.cls-12,.cls-13,.cls-14,.cls-2,.cls-3,.cls-4,.cls-5,.cls-6,.cls-7,.cls-8,.cls-9{stroke-miterlimit:10;}.cls-1,.cls-3,.cls-4,.cls-9{stroke-width:5px;}.cls-2,.cls-7{stroke-width:7px;}.cls-10,.cls-12,.cls-13,.cls-3{stroke-linecap:round;}.cls-4,.cls-5{fill:#ff5440;}.cls-10,.cls-13,.cls-14,.cls-5,.cls-6{stroke-width:3px;}.cls-11,.cls-12,.cls-13,.cls-14,.cls-7,.cls-8{fill:none;}.cls-8{stroke:#fff;}.cls-9{fill:#26b899;}.cls-10{fill:#80cbb7;}.cls-11{stroke-width:4px;}.cls-12{stroke-width:2px;}</style></defs><title>Logo Expo 2 Colored</title><path class="cls-1" d="M255,200.21a30.32,30.32,0,0,1,58.5,1.6c1.14.17,11.74,1.95,17,11.83,5.94,11.14-.54,22-.87,22.54.81.75,10.27,9.88,8,23.28-2.33,13.89-15.08,19.51-15.95,19.87a24.35,24.35,0,0,1-8.48,19.72c-4.73,4-13.1,4.64-18.65.66,0,.09,0,.21,0,.36-.9,8.62-3.52,13.72-10.57,19.25-7.76,6.09-22.17,4.87-28.59,1.58Z" transform="translate(-157.46 -173.18)"/><path class="cls-2" d="M312.17,266.61" transform="translate(-157.46 -173.18)"/><path class="cls-3" d="M311.26,196.63a87,87,0,0,1-1.16,14.71c-1.16,6.95-3.48,13.9-9.29,15.29-3.49,0-5.57-1.3-8.13-4.17-3.17-3.56-3.74-8.72-4.65-11.12" transform="translate(-157.46 -173.18)"/><path class="cls-4" d="M250.53,199.8h0V320.16a14.5,14.5,0,0,1,0,2c-1,1.55-47.42-17.47-73.85-54.26a104,104,0,0,1-9.84-17.76c-3.66-8.28-6.28-14.19-6.76-22.61-.58-10,1.09-17.65,2.42-21,1.79-4.51,6.29-13.9,15-21,11.43-9.32,24.76-9.73,29.12-9.82,0,0,18.1-.34,32,10.82a67.82,67.82,0,0,1,11.93,13.27Z" transform="translate(-157.46 -173.18)"/><path class="cls-5" d="M208,255.43c.52.13-9.49-2.51-14.9-3.82-5-1.2-9.89-2.28-14.67-3.28-1-.13-8.85-1.94-10.77-.67-2.22,1.47,20.41,31.32,21.9,31.35,4.38.07,9.25.51,18.44,1Z" transform="translate(-157.46 -173.18)"/><path class="cls-6" d="M299.27,254.84q7.53-2,15.56-3.83,7.83-1.8,15.32-3.3a8.22,8.22,0,0,1,5.37,1c2.31,1.47,2.84,4.1,3.22,6,.71,3.49-.22,6.32-1.07,9A27.32,27.32,0,0,1,334,271c-1.68,2.38-3.64,5.14-7.07,6.63a14.62,14.62,0,0,1-6.21,1c-4.58.07-11.86.42-21.45.89Z" transform="translate(-157.46 -173.18)"/><path class="cls-7" d="M248.53,321.13" transform="translate(-157.46 -173.18)"/><path class="cls-8" d="M164.34,242.34" transform="translate(-157.46 -173.18)"/><path class="cls-9" d="M252.27,240.63c-5.69,1.23-10.21,2.52-13.12,3.4-9.9,3-14,5.32-23.64,8.16-5.33,1.57-9.69,2.53-12.3,3.05-.3,4.64-.45,17,7.67,27.89,4.87,6.52,10.64,9.71,14.77,12a59.93,59.93,0,0,0,26.75,7c5.23.14,15,.3,25.8-5,3.93-1.93,10.35-5.08,15.51-12,8.79-11.8,7.45-25.87,6.92-29.89-3.27-.66-7.47-1.63-12.29-3.05-9.44-2.78-13.59-5-23.65-8.16C261.39,243,257.2,241.8,252.27,240.63Z" transform="translate(-157.46 -173.18)"/><path class="cls-10" d="M283,268a82.74,82.74,0,0,1-60,0" transform="translate(-157.46 -173.18)"/><path class="cls-10" d="M277.55,283.42a58.79,58.79,0,0,1-50,0" transform="translate(-157.46 -173.18)"/><path class="cls-11" d="M253.63,200.57c7.83,2.4,10.52,5.69,11.46,8.38,1.44,4.13-.77,8.18,1.94,11.68a9,9,0,0,0,5,3" transform="translate(-157.46 -173.18)"/><path class="cls-12" d="M302,285.63c.28,2.24,1,5.1,3,6s4.13-1,6,0c1.1.56,2.28,2.19,2.22,7.12" transform="translate(-157.46 -173.18)"/><path class="cls-13" d="M257.24,318.12a11.81,11.81,0,0,1,7.13-7c4.37-1.48,8.81-.14,10.66.53" transform="translate(-157.46 -173.18)"/><path class="cls-14" d="M331.92,228.9c-4.62,8.36-8.54,10.29-11.39,10.38-3.12.09-5.95-2-11-1.15a16,16,0,0,0-4.5,1.5" transform="translate(-157.46 -173.18)"/><ellipse cx="173.06" cy="221.35" rx="3.34" ry="1.84" transform="translate(-229.73 185.13) rotate(-81.15)"/><path class="cls-13" d="M303,234.84a13.43,13.43,0,0,1,2.54,6.29,12.72,12.72,0,0,1-.15,4.12" transform="translate(-157.46 -173.18)"/><path class="cls-13" d="M174,214a40.59,40.59,0,0,1,6.39-15.68A25.15,25.15,0,0,1,195,188" transform="translate(-157.46 -173.18)"/><path class="cls-13" d="M281.71,221.2c-2.7-.37-7.38-.63-10.1,1.9s-2.22,6.32-1.71,8.63" transform="translate(-157.46 -173.18)"/><path class="cls-13" d="M337.11,261.43a12.75,12.75,0,0,0-7.58.7,12.56,12.56,0,0,0-4.94,3.78" transform="translate(-157.46 -173.18)"/></svg>