<svg id="Capa_1" data-name="Capa 1" xmlns="http://www.w3.org/2000/svg" viewBox="0 0 182 153"><defs><style>.cls-1,.cls-10,.cls-11,.cls-2,.cls-4,.cls-5,.cls-6,.cls-7,.cls-9{fill:none;}.cls-1,.cls-10,.cls-11,.cls-2,.cls-3,.cls-4,.cls-5,.cls-6,.cls-8,.cls-9{stroke:#000;}.cls-1,.cls-10,.cls-11,.cls-2,.cls-3,.cls-4,.cls-5,.cls-6,.cls-7,.cls-8,.cls-9{stroke-miterlimit:10;}.cls-1,.cls-6{stroke-width:7px;}.cls-2,.cls-5,.cls-6,.cls-9{stroke-linecap:round;}.cls-2{stroke-width:2px;}.cls-3,.cls-8{fill:#fff;}.cls-11,.cls-3,.cls-9{stroke-width:3px;}.cls-4,.cls-5,.cls-8{stroke-width:5px;}.cls-7{stroke:#fff;}.cls-10{stroke-width:4px;}</style></defs><title>logo Expo 2</title><path class="cls-1" d="M253.5,352.5" transform="translate(-163.5 -204.5)"/><path class="cls-2" d="M307,317c.28,2.25,1,5.1,3,6s4.13-1,6,0c1.1.57,2.28,2.19,2.21,7.12" transform="translate(-163.5 -204.5)"/><path class="cls-3" d="M212,288c.53.14-9.63-2.56-15.12-3.89-5.07-1.23-10-2.33-14.88-3.35-1-.13-9-2-10.93-.68-2.24,1.5,4.77,9.88,6.64,14.28.8,1.89,5.78,6.55,8.85,11,3.75,5.43,5.22,6.65,6.73,6.68,4.45.07,9.39.52,18.71,1Z" transform="translate(-163.5 -204.5)"/><path class="cls-3" d="M304,286.21q7.59-2,15.67-3.83,7.89-1.8,15.42-3.3a8.38,8.38,0,0,1,5.4,1c2.33,1.48,2.86,4.11,3.25,6a15,15,0,0,1-1.08,9c-.83,1.87-1.15,1.61-4.33,6-3.88,5.35-4.93,6.29-7.23,7.47a11.48,11.48,0,0,1-5.5,1.5c-4.61.07-11.94.42-21.6.9Z" transform="translate(-163.5 -204.5)"/><path class="cls-4" d="M255.5,231.17V351.53a14.5,14.5,0,0,1,0,2c-1,1.55-47.72-17.47-74.32-54.26a94.11,94.11,0,0,1-9.91-17.76c-6.48-15.08-5.31-32.45-5-36.5.22-2.53,1-4.73,2-7.89C170.7,229,176,223,182.17,217.36c2.61-2.39,12.82-9.55,29.14-10.3C237.8,205.83,255.5,225.25,255.5,231.17Z" transform="translate(-163.5 -204.5)"/><path class="cls-5" d="M260,231.58a30.32,30.32,0,0,1,58.5,1.6c1.14.17,11.74,2,17,11.84,5.93,11.14-.54,22-.87,22.53.81.76,10.27,9.88,8,23.28-2.33,13.89-15.08,19.51-16,19.88a24.38,24.38,0,0,1-8.48,19.72c-4.73,4-13.1,4.63-18.65.66,0,.08,0,.2,0,.35-.91,8.62-3.52,13.72-10.57,19.25-7.76,6.09-22.17,4.87-28.6,1.58Z" transform="translate(-163.5 -204.5)"/><path class="cls-6" d="M317.14,298" transform="translate(-163.5 -204.5)"/><path class="cls-5" d="M316.23,227a87.23,87.23,0,0,1-1.16,14.72c-1.16,6.94-3.49,13.89-9.29,15.28-3.49,0-5.57-1.3-8.13-4.17-3.17-3.55-3.74-8.72-4.65-11.11" transform="translate(-163.5 -204.5)"/><path class="cls-7" d="M169.31,273.71" transform="translate(-163.5 -204.5)"/><path class="cls-8" d="M257.24,272c-5.7,1.23-10.21,2.52-13.12,3.41-9.9,3-14,5.31-23.64,8.15-5.33,1.57-9.7,2.53-12.3,3.06-.3,4.64-.45,17,7.67,27.88,4.87,6.52,10.64,9.71,14.77,12a59.92,59.92,0,0,0,26.74,7,52.67,52.67,0,0,0,25.8-5c3.93-1.93,10.36-5.08,15.52-12,8.79-11.8,7.45-25.87,6.92-29.88-3.27-.67-7.47-1.64-12.29-3.06-9.44-2.78-13.59-5-23.65-8.15C266.36,274.38,262.16,273.17,257.24,272Z" transform="translate(-163.5 -204.5)"/><path class="cls-9" d="M288,301a114.5,114.5,0,0,1-60,0" transform="translate(-163.5 -204.5)"/><path class="cls-9" d="M282.52,314.79a80.13,80.13,0,0,1-50,0" transform="translate(-163.5 -204.5)"/><path class="cls-10" d="M258.6,231.94c7.83,2.4,10.52,5.69,11.46,8.38,1.44,4.13-.77,8.18,1.94,11.68a9,9,0,0,0,5,3" transform="translate(-163.5 -204.5)"/><path class="cls-9" d="M340.08,292.8a12.5,12.5,0,0,0-12.52,4.48" transform="translate(-163.5 -204.5)"/><path class="cls-9" d="M262.21,349.5a11.8,11.8,0,0,1,7.13-7c4.37-1.48,8.81-.14,10.66.53" transform="translate(-163.5 -204.5)"/><path class="cls-11" d="M336.89,260.27c-4.62,8.36-8.55,10.3-11.39,10.38-3.12.09-5.95-2-11-1.15A16,16,0,0,0,310,271" transform="translate(-163.5 -204.5)"/><path class="cls-9" d="M282.14,250.49a15.54,15.54,0,0,0-8.92,9.87" transform="translate(-163.5 -204.5)"/><path class="cls-9" d="M308,266.22a13.43,13.43,0,0,1,2.54,6.28,13,13,0,0,1-.15,4.12" transform="translate(-163.5 -204.5)"/><ellipse cx="178.77" cy="244.39" rx="3.34" ry="1.84" transform="translate(-256.45 173.51) rotate(-80)"/><path class="cls-9" d="M181.07,238.24A40.55,40.55,0,0,1,214,218" transform="translate(-163.5 -204.5)"/></svg>