<svg id="Capa_1" data-name="Capa 1" xmlns="http://www.w3.org/2000/svg" viewBox="0 0 182.68 152"><defs><style>.cls-1,.cls-7{stroke:#000;stroke-width:7px;}.cls-1,.cls-10,.cls-2,.cls-3,.cls-6{stroke-linecap:round;}.cls-1,.cls-10,.cls-11,.cls-12,.cls-2,.cls-3,.cls-4,.cls-5,.cls-6,.cls-7,.cls-8,.cls-9{stroke-miterlimit:10;}.cls-10,.cls-11,.cls-12,.cls-2,.cls-3,.cls-4,.cls-5,.cls-6,.cls-8,.cls-9{stroke:#fff;}.cls-11,.cls-2,.cls-5{stroke-width:4px;}.cls-3,.cls-9{stroke-width:5px;}.cls-10,.cls-12,.cls-4{stroke-width:3px;}.cls-10,.cls-11,.cls-12,.cls-6,.cls-7,.cls-8{fill:none;}.cls-6{stroke-width:2px;}.cls-13{fill:#fff;}</style></defs><title>Logo Expo 2 W&amp;amp;B</title><path class="cls-1" d="M312.53,266.61" transform="translate(-158.82 -173.63)"/><path class="cls-2" d="M254,200.21a31.24,31.24,0,0,1,59.89,1.6c1.16.17,12,1.95,17.4,11.83,6.08,11.14-.55,22-.89,22.54.83.75,10.52,9.88,8.22,23.28-2.38,13.89-15.44,19.51-16.32,19.87a24.12,24.12,0,0,1-8.69,19.72c-4.84,4-13.41,4.64-19.09.66,0,.09,0,.21,0,.36-.93,8.62-3.61,13.72-10.82,19.25-7.94,6.09-22.7,4.87-29.27,1.58Z" transform="translate(-158.82 -173.63)"/><path class="cls-3" d="M310.52,194.63a85.36,85.36,0,0,1-1.18,14.71c-1.19,6.95-3.57,13.9-9.52,15.29-3.56,0-5.7-1.3-8.32-4.17-3.25-3.56-3.83-8.72-4.76-11.12" transform="translate(-158.82 -173.63)"/><path class="cls-4" d="M299.27,255q7.73-2,16-3.89,8-1.83,15.71-3.35a8.51,8.51,0,0,1,5.5,1c2.37,1.49,2.91,4.16,3.3,6.07.77,3.74-.3,6.79-1.1,9.11A27.28,27.28,0,0,1,334,272c-2.17,2.86-3.68,4.85-6.37,6.08a14.06,14.06,0,0,1-6.37,1c-4.7.07-12.16.42-22,.91Z" transform="translate(-158.82 -173.63)"/><path class="cls-5" d="M250.53,199.8V320.16a14.5,14.5,0,0,1,0,2c-1,1.55-47.72-17.47-74.32-54.26a82,82,0,0,1-9.91-17.76A72.27,72.27,0,0,1,161,218a46.13,46.13,0,0,1,2.33-12.28C167,195.2,174,188.89,177.2,186c2.61-2.39,12.82-9.55,29.14-10.31C232.84,174.45,250.53,193.88,250.53,199.8Z" transform="translate(-158.82 -173.63)"/><path class="cls-6" d="M302,285.63c.28,2.24,1,5.1,3,6s4.13-1,6,0c1.1.56,2.28,2.19,2.22,7.12" transform="translate(-158.82 -173.63)"/><path class="cls-5" d="M185,281" transform="translate(-158.82 -173.63)"/><path class="cls-7" d="M248.53,321.13" transform="translate(-158.82 -173.63)"/><path class="cls-8" d="M164.34,242.34" transform="translate(-158.82 -173.63)"/><path class="cls-4" d="M207,256.58c.53.14-9.63-2.55-15.11-3.88-5.07-1.23-10-2.33-14.87-3.35-1-.13-9-2-10.92-.68-2.25,1.49,17.64,28.72,19.86,29.92.11.06,2.57,2.43,2.59,2.41a144.33,144.33,0,0,1,18.45.63Z" transform="translate(-158.82 -173.63)"/><path class="cls-9" d="M252.27,240.63c-5.69,1.23-10.21,2.52-13.12,3.4-9.9,3-14,5.32-23.64,8.16-5.33,1.57-9.69,2.53-12.3,3.05-.3,4.64-.45,17,7.67,27.89,4.87,6.52,10.64,9.71,14.77,12a59.93,59.93,0,0,0,26.75,7c5.23.14,15,.3,25.8-5,3.93-1.93,10.35-5.08,15.51-12,8.79-11.8,7.45-25.87,6.92-29.89-3.27-.66-7.47-1.63-12.29-3.05-9.44-2.78-13.59-5-23.65-8.16C261.39,243,257.2,241.8,252.27,240.63Z" transform="translate(-158.82 -173.63)"/><path class="cls-10" d="M283,269.63a114.5,114.5,0,0,1-60,0" transform="translate(-158.82 -173.63)"/><path class="cls-10" d="M277.55,283.42a80.13,80.13,0,0,1-50,0" transform="translate(-158.82 -173.63)"/><path class="cls-11" d="M253.63,200.57c7.83,2.4,10.52,5.69,11.46,8.38,1.44,4.13-.77,8.18,1.94,11.68a9,9,0,0,0,5,3" transform="translate(-158.82 -173.63)"/><path class="cls-10" d="M338.11,261.43a12.75,12.75,0,0,0-7.58.7,12.56,12.56,0,0,0-4.94,3.78" transform="translate(-158.82 -173.63)"/><path class="cls-10" d="M257.24,319.12a11.81,11.81,0,0,1,7.13-7c4.37-1.48,8.81-.14,10.66.53" transform="translate(-158.82 -173.63)"/><path class="cls-12" d="M333.7,228.58c-4.76,8.15-8.67,10.12-11.46,10.28-3.07.18-5.78-1.77-10.75-.8a16.65,16.65,0,0,0-4.46,1.57" transform="translate(-158.82 -173.63)"/><path class="cls-10" d="M277.17,219.12a15.57,15.57,0,0,0-5.64,4,15.84,15.84,0,0,0-3.28,5.85" transform="translate(-158.82 -173.63)"/><path class="cls-10" d="M304,234.84a13.43,13.43,0,0,1,2.54,6.29,12.72,12.72,0,0,1-.15,4.12" transform="translate(-158.82 -173.63)"/><ellipse class="cls-13" cx="173.8" cy="215.02" rx="3.34" ry="1.84" transform="translate(-226.95 175.22) rotate(-80)"/><path class="cls-10" d="M177.1,205.86A40.57,40.57,0,0,1,210,185.63" transform="translate(-158.82 -173.63)"/></svg>