<svg width="132" height="1581" viewBox="0 0 132 1581" fill="none" xmlns="http://www.w3.org/2000/svg">
<g filter="url(#filter0_d_3_2)">
<path d="M5 1337.79V45.75C5 23.2444 23.2444 5 45.75 5C68.2556 5 86.5 23.2444 86.5 45.75V1341.94C86.5 1371.22 83.2836 1400.42 76.9086 1429.01L71 1455.5H22L16.4547 1432.83C8.84577 1401.72 5 1369.81 5 1337.79Z" fill="url(#paint0_linear_3_2)"/>
<path d="M38.0669 1528.88L22.5 1457H70.5L54.4642 1528.93C53.6085 1532.77 50.2033 1535.5 46.271 1535.5C42.3196 1535.5 38.9032 1532.74 38.0669 1528.88Z" fill="url(#paint1_linear_3_2)"/>
<path d="M5 1337.79V45.75C5 23.2444 23.2444 5 45.75 5C68.2556 5 86.5 23.2444 86.5 45.75V1341.94C86.5 1371.22 83.2836 1400.42 76.9086 1429.01L71 1455.5H22L16.4547 1432.83C8.84577 1401.72 5 1369.81 5 1337.79Z" fill="url(#paint2_linear_3_2)"/>
<path d="M38.0669 1528.88L22.5 1457H70.5L54.4642 1528.93C53.6085 1532.77 50.2033 1535.5 46.271 1535.5C42.3196 1535.5 38.9032 1532.74 38.0669 1528.88Z" fill="url(#paint3_linear_3_2)"/>
<path d="M30 1457V1455.5H63V1457H30Z" fill="#C4C4C4"/>
<rect x="28" y="26.5" width="36" height="1366" rx="18" fill="url(#paint4_linear_3_2)"/>
<path fill-rule="evenodd" clip-rule="evenodd" d="M33.0615 151.707C33.2374 152.584 33.6358 153.358 34.2447 154.005C35.1326 154.949 36.3185 155.475 37.5566 155.475L37.8395 155.475L37.8196 155.116C37.742 153.711 36.8375 152.441 35.4284 151.758C34.7668 151.438 34.2578 151.311 33.5094 151.28C32.9106 151.255 32.9612 151.207 33.0615 151.707ZM38.1289 152.338C38.2091 152.768 38.3389 153.193 38.5901 153.845C39.0496 155.04 39.0914 155.209 39.0228 155.603C38.9999 155.735 38.8578 156.166 38.7071 156.561C38.2189 157.842 38.1223 158.257 38.1579 158.918C38.2434 160.504 39.0824 161.969 40.4057 162.845C40.9782 163.224 41.699 163.545 42.351 163.713C43.4768 164.002 44.8868 164.033 46.2594 163.799C47.745 163.545 49.3099 162.986 50.6055 162.246C51.6818 161.632 53.0639 160.525 53.5003 159.927C53.885 159.4 54.0056 159.048 53.9998 158.472C53.9945 157.947 53.9362 157.718 53.6073 156.926C53.3114 156.213 53.2299 155.93 53.1805 155.445C53.1083 154.735 53.2163 154.148 53.5776 153.284C53.8992 152.516 53.9872 152.172 53.9877 151.679C53.9885 150.935 53.562 150.127 52.8262 149.479C51.9689 148.724 50.4376 147.775 49.3612 147.333C49.0158 147.191 48.4436 146.987 48.4315 147.001C48.427 147.006 48.38 147.097 48.3271 147.203C47.5515 148.758 45.9141 149.775 44.1912 149.772C43.2296 149.77 42.373 149.508 41.5448 148.962C41.187 148.726 40.6268 148.193 40.3797 147.853C40.281 147.717 40.1881 147.592 40.1731 147.574C40.1365 147.532 39.7963 147.792 39.4928 148.096C38.8686 148.719 38.4434 149.479 38.2066 150.393C38.1137 150.751 38.1008 150.865 38.0894 151.427C38.0801 151.885 38.0909 152.134 38.1289 152.338Z" fill="#7A7B7F"/>
<path d="M54 137.937L38.1552 137.937L38.1552 131.995C38.1552 130.778 38.3821 129.757 38.836 128.932C39.2899 128.101 39.914 127.475 40.7083 127.052C41.4974 126.623 42.3949 126.409 43.4007 126.409C44.4168 126.409 45.3194 126.623 46.1085 127.052C46.8977 127.48 47.5192 128.112 47.9731 128.947C48.4218 129.783 48.6462 130.812 48.6462 132.034L48.6462 135.972L46.2865 135.972L46.2865 132.421C46.2865 131.709 46.1627 131.126 45.9151 130.672C45.6675 130.218 45.3271 129.883 44.8939 129.667C44.4606 129.445 43.9629 129.334 43.4007 129.334C42.8385 129.334 42.3433 129.445 41.9152 129.667C41.4871 129.883 41.1544 130.221 40.9172 130.68C40.6748 131.134 40.5535 131.719 40.5535 132.436L40.5535 135.067L54 135.067L54 137.937ZM54.2321 118.949C54.2321 120.141 53.9845 121.17 53.4894 122.036C52.9891 122.898 52.2824 123.56 51.3695 124.025C50.4514 124.489 49.3708 124.721 48.1278 124.721C46.9054 124.721 45.8326 124.489 44.9093 124.025C43.9809 123.555 43.2588 122.9 42.743 122.059C42.2221 121.219 41.9616 120.231 41.9616 119.096C41.9616 118.364 42.0803 117.673 42.3175 117.023C42.5496 116.368 42.9107 115.79 43.4007 115.29C43.8907 114.784 44.5148 114.387 45.273 114.098C46.026 113.81 46.9235 113.665 47.9653 113.665L48.8241 113.665L48.8241 123.406L46.9364 123.406L46.9364 116.35C46.3999 116.355 45.9228 116.471 45.5051 116.698C45.0821 116.925 44.7494 117.242 44.507 117.65C44.2646 118.052 44.1434 118.521 44.1434 119.058C44.1434 119.63 44.2827 120.133 44.5612 120.566C44.8345 121 45.1956 121.337 45.6443 121.58C46.0879 121.817 46.5753 121.938 47.1066 121.943L48.7545 121.943C49.4456 121.943 50.0388 121.817 50.5339 121.564C51.0239 121.312 51.4005 120.958 51.6635 120.504C51.9214 120.05 52.0503 119.519 52.0503 118.911C52.0503 118.503 51.9936 118.134 51.8801 117.804C51.7615 117.474 51.5887 117.188 51.3618 116.945C51.1348 116.703 50.8537 116.52 50.5185 116.396L50.8125 113.781C51.5036 113.946 52.1071 114.261 52.6229 114.725C53.1335 115.184 53.5306 115.772 53.8143 116.489C54.0928 117.206 54.2321 118.026 54.2321 118.949ZM47.0369 108.495L54 108.495L54 111.296L42.1164 111.296L42.1164 108.619L44.1357 108.619L44.1357 108.48C43.4703 108.206 42.9416 107.77 42.5496 107.172C42.1576 106.569 41.9616 105.823 41.9616 104.936C41.9616 104.116 42.137 103.402 42.4877 102.793C42.8385 102.179 43.3465 101.705 44.0119 101.369C44.6772 101.029 45.4844 100.861 46.4335 100.867L54 100.867L54 103.667L46.8667 103.667C46.0724 103.667 45.4509 103.874 45.0022 104.286C44.5534 104.694 44.3291 105.258 44.3291 105.981C44.3291 106.471 44.4374 106.906 44.654 107.288C44.8655 107.665 45.1724 107.961 45.5747 108.178C45.977 108.389 46.4644 108.495 47.0369 108.495ZM54.2321 92.8358C54.2321 94.0221 53.9716 95.0408 53.4507 95.8919C52.9297 96.7377 52.2102 97.3902 51.2921 97.8492C50.3689 98.3031 49.3064 98.5301 48.1046 98.5301C46.8977 98.5301 45.8326 98.298 44.9093 97.8338C43.9809 97.3696 43.2588 96.7145 42.743 95.8686C42.2221 95.0176 41.9616 94.0118 41.9616 92.8513C41.9616 91.8868 42.1396 91.0332 42.4955 90.2905C42.8462 89.5426 43.3439 88.9468 43.9887 88.5033C44.6282 88.0597 45.3761 87.807 46.2323 87.7451L46.2323 90.422C45.6598 90.5303 45.1827 90.7882 44.801 91.1957C44.4142 91.598 44.2208 92.137 44.2208 92.8126C44.2208 93.3851 44.3755 93.888 44.685 94.3213C44.9893 94.7546 45.4277 95.0924 46.0002 95.3348C46.5727 95.5721 47.2587 95.6907 48.0582 95.6907C48.868 95.6907 49.5643 95.5721 50.1471 95.3348C50.7248 95.0975 51.1709 94.7649 51.4856 94.3368C51.795 93.9035 51.9498 93.3955 51.9498 92.8126C51.9498 92.4 51.8724 92.0312 51.7177 91.7063C51.5578 91.3762 51.3282 91.1002 51.0291 90.8784C50.7299 90.6567 50.3663 90.5045 49.9382 90.422L49.9382 87.7451C50.7789 87.8121 51.5242 88.0597 52.1741 88.4878C52.8189 88.9159 53.3243 89.4987 53.6905 90.2363C54.0516 90.9739 54.2321 91.8404 54.2321 92.8358ZM54 85.4453L42.1164 85.4453L42.1164 82.6446L54 82.6446L54 85.4453ZM40.4298 84.0372C40.4298 84.4808 40.2828 84.8625 39.9888 85.1823C39.6896 85.5021 39.3311 85.6619 38.9134 85.6619C38.4904 85.6619 38.1319 85.5021 37.8379 85.1823C37.5388 84.8625 37.3892 84.4808 37.3892 84.0372C37.3892 83.5885 37.5388 83.2068 37.8379 82.8922C38.1319 82.5724 38.4904 82.4125 38.9134 82.4125C39.3311 82.4125 39.6896 82.5724 39.9888 82.8922C40.2828 83.2068 40.4298 83.5885 40.4298 84.0372ZM38.1551 76.9639L54 76.9639L54 79.7646L38.1551 79.7646L38.1551 76.9639Z" fill="#7A7B7F"/>
</g>
<defs>
<filter id="filter0_d_3_2" x="0" y="0" width="131.5" height="1580.5" filterUnits="userSpaceOnUse" color-interpolation-filters="sRGB">
<feFlood flood-opacity="0" result="BackgroundImageFix"/>
<feColorMatrix in="SourceAlpha" type="matrix" values="0 0 0 0 0 0 0 0 0 0 0 0 0 0 0 0 0 0 127 0" result="hardAlpha"/>
<feOffset dx="20" dy="20"/>
<feGaussianBlur stdDeviation="12.5"/>
<feComposite in2="hardAlpha" operator="out"/>
<feColorMatrix type="matrix" values="0 0 0 0 0 0 0 0 0 0 0 0 0 0 0 0 0 0 0.25 0"/>
<feBlend mode="normal" in2="BackgroundImageFix" result="effect1_dropShadow_3_2"/>
<feBlend mode="normal" in="SourceGraphic" in2="effect1_dropShadow_3_2" result="shape"/>
</filter>
<linearGradient id="paint0_linear_3_2" x1="5" y1="195.5" x2="87" y2="195.5" gradientUnits="userSpaceOnUse">
<stop offset="0.604167" stop-color="white" stop-opacity="0"/>
<stop offset="1" stop-color="#DEDEDE"/>
</linearGradient>
<linearGradient id="paint1_linear_3_2" x1="5" y1="195.5" x2="87" y2="195.5" gradientUnits="userSpaceOnUse">
<stop offset="0.604167" stop-color="white" stop-opacity="0"/>
<stop offset="1" stop-color="#DEDEDE"/>
</linearGradient>
<linearGradient id="paint2_linear_3_2" x1="5" y1="176.5" x2="87" y2="176.5" gradientUnits="userSpaceOnUse">
<stop stop-color="#BCBCBC"/>
<stop offset="0.8125" stop-color="white" stop-opacity="0"/>
</linearGradient>
<linearGradient id="paint3_linear_3_2" x1="5" y1="176.5" x2="87" y2="176.5" gradientUnits="userSpaceOnUse">
<stop stop-color="#BCBCBC"/>
<stop offset="0.8125" stop-color="white" stop-opacity="0"/>
</linearGradient>
<linearGradient id="paint4_linear_3_2" x1="28" y1="823.5" x2="64" y2="823.5" gradientUnits="userSpaceOnUse">
<stop stop-color="#F7F7F7"/>
<stop offset="1" stop-color="#F0F0F0"/>
</linearGradient>
</defs>
</svg>
